# xmcd
#
# Track frame offsets:
#	150
#	7417
#	16679
#	21898
#	30690
#	42686
#	51237
#	62505
#	68245
#	76284
#	83229
#	91365
#	99637
#	108888
#	114621
#	126117
#	137430
#	145760
#	157017
#	162820
#	171570
#
# Disc length: 2438 seconds
# Revision: 0
# Processed by: cddbd v1.5.2PL0 Copyright (c) Steve Scherf et al.
# Submitted via: dBpowerAMP V12.0
#
DISCID=1b098415
DTITLE=Red Smiley and the Bluegrass Cut-Ups - Red Smiley and the Blue Grass Cut-Ups
DYEAR=2013
DGENRE=Country
TTITLE0=Roll on Buddy
TTITLE1=Summertime Is Past and Gone
TTITLE2=Big Sandy
TTITLE3=Take This Hammer
TTITLE4=Wreck of the Old No. 9
TTITLE5=Let the Church Roll On
TTITLE6=Short Life of Trouble
TTITLE7=Shady Grove
TTITLE8=Little Maggie
TTITLE9=900 Miles
TTITLE10=Silver Bells
TTITLE11=Oh! Monah
TTITLE12=Tupelo County Jail
TTITLE13=Black Eyed Susan
TTITLE14=Fallen Leaf
TTITLE15=Something Got Hold of Me
TTITLE16=Little Birdie
TTITLE17=In the Pines
TTITLE18=Darlin' Corey
TTITLE19=Working on a Bulding
TTITLE20=Somebody Touched Me
EXTD=
EXTT0=
EXTT1=
EXTT2=
EXTT3=
EXTT4=
EXTT5=
EXTT6=
EXTT7=
EXTT8=
EXTT9=
EXTT10=
EXTT11=
EXTT12=
EXTT13=
EXTT14=
EXTT15=
EXTT16=
EXTT17=
EXTT18=
EXTT19=
EXTT20=
PLAYORDER=
